<?xml version="1.0" standalone="no"?>
<!DOCTYPE svg PUBLIC "-//W3C//DTD SVG 20010904//EN"
 "http://www.w3.org/TR/2001/REC-SVG-20010904/DTD/svg10.dtd">
<svg version="1.0" xmlns="http://www.w3.org/2000/svg"
 width="2000.000000pt" height="2000.000000pt" viewBox="0 0 2000.000000 2000.000000"
 preserveAspectRatio="xMidYMid meet">

<g transform="translate(0.000000,2000.000000) scale(0.100000,-0.100000)"
fill="#000000" stroke="none">
<path d="M10 10000 l0 -10000 9995 0 9995 0 0 10000 0 10000 -9995 0 -9995 0
0 -10000z m15318 6752 c86 -328 90 -348 101 -528 19 -317 -29 -660 -133 -930
-38 -102 -130 -288 -179 -366 -34 -53 -34 -54 -45 -238 -19 -300 -64 -533
-145 -749 l-36 -93 47 6 c82 11 486 26 494 18 3 -4 18 -42 33 -85 35 -106 50
-275 36 -416 -48 -474 -322 -927 -782 -1293 -109 -87 -128 -106 -139 -142 -45
-154 -145 -382 -237 -545 -430 -758 -1146 -1324 -2104 -1665 -85 -30 -190 -64
-234 -77 -44 -12 -82 -24 -84 -25 -1 -2 8 -28 22 -58 l26 -56 1357 0 1357 0
91 -49 c97 -51 462 -266 484 -283 9 -8 12 -241 10 -1127 l-3 -1116 -170 -73
c-567 -242 -955 -402 -1038 -426 l-56 -16 -220 55 c-278 69 -606 142 -876 194
-223 43 -686 121 -720 121 -18 0 -27 -21 -66 -142 -134 -416 -355 -868 -618
-1263 -247 -370 -588 -755 -868 -980 -125 -100 -492 -348 -691 -466 -275 -164
-394 -208 -565 -209 l-88 0 -57 52 c-133 121 -208 197 -263 266 -45 56 -73 80
-123 106 -89 47 -164 106 -278 222 -219 222 -424 527 -485 720 -15 50 -24 61
-75 96 -194 131 -401 402 -582 761 -109 214 -221 455 -215 460 2 2 103 39 224
82 313 111 505 186 500 196 -13 19 -220 129 -245 129 -59 0 -522 -71 -820
-126 -472 -87 -803 -163 -1355 -310 l-321 -86 -407 168 -407 167 0 1439 0
1438 1325 0 c729 0 1325 2 1325 5 0 3 -13 31 -29 63 -86 172 -200 496 -305
867 -75 266 -110 369 -176 517 -143 320 -328 489 -675 616 -387 141 -1021 258
-1780 327 -159 14 -301 29 -315 32 -20 4 26 31 235 135 319 160 437 211 678
294 350 119 693 193 1084 234 108 12 206 26 217 32 12 6 100 66 196 133 217
151 303 205 500 313 286 156 484 225 771 267 297 43 734 18 941 -54 108 -37
188 -114 188 -181 0 -15 16 -27 64 -49 93 -42 201 -114 271 -182 57 -54 85
-100 111 -181 8 -23 136 -142 371 -345 l60 -52 54 67 c201 251 548 608 1124
1156 591 562 749 704 1161 1047 677 563 1652 1278 2567 1884 264 174 895 575
906 575 3 0 39 -125 79 -278z"/>
<path d="M14930 16644 c-1062 -670 -2348 -1601 -3155 -2284 -359 -303 -470
-404 -1020 -926 -630 -599 -977 -960 -1208 -1257 -44 -56 -82 -103 -86 -104
-3 -2 -94 75 -203 170 -108 94 -248 217 -311 272 l-115 100 6 43 c5 43 4 44
-64 110 -88 85 -196 146 -353 198 -100 34 -119 43 -100 49 40 12 79 45 79 65
0 28 -35 47 -124 70 -212 54 -596 71 -821 36 -418 -65 -676 -189 -1317 -631
-58 -41 -124 -78 -145 -84 -21 -6 -126 -19 -233 -31 -366 -38 -666 -102 -1005
-214 -200 -66 -445 -164 -445 -178 0 -4 13 -8 30 -8 103 0 748 -102 1018 -161
984 -216 1236 -453 1501 -1416 104 -376 207 -656 347 -938 46 -94 84 -174 84
-178 0 -4 -619 -6 -1375 -5 l-1375 3 0 -1301 0 -1302 48 -20 c167 -71 613
-252 621 -252 6 0 102 25 213 56 592 163 1241 303 1813 393 362 57 497 73 520
63 12 -6 124 -69 248 -141 l226 -131 68 -1 68 -1 -129 -63 c-160 -79 -342
-155 -596 -247 -107 -39 -199 -74 -203 -78 -11 -10 161 -365 243 -500 144
-241 339 -459 470 -529 45 -24 61 -39 65 -59 42 -209 230 -507 475 -753 114
-115 193 -173 270 -199 43 -15 57 -26 99 -86 27 -38 102 -121 167 -184 l119
-115 83 3 c100 3 167 28 347 130 350 199 730 465 930 653 248 232 545 599 747
921 255 406 460 869 568 1281 19 73 26 87 43 87 33 0 463 -68 702 -111 354
-64 981 -201 1157 -254 28 -8 63 -15 77 -15 31 0 240 84 739 295 l372 158 -2
1021 -3 1021 -140 83 c-77 45 -177 103 -222 127 l-81 45 -1389 0 c-763 0
-1393 4 -1399 8 -7 4 -35 59 -64 122 -28 63 -68 145 -88 182 -20 37 -34 70
-31 73 3 3 72 23 153 45 589 162 1140 434 1565 774 152 121 397 364 509 504
236 295 440 676 517 964 18 68 18 68 104 130 416 303 695 698 782 1108 17 82
22 135 21 245 -1 77 -5 156 -10 175 l-8 35 -109 1 c-141 1 -279 -11 -430 -38
-66 -11 -132 -23 -148 -25 l-27 -5 44 83 c103 194 187 442 225 669 12 69 27
215 32 325 6 110 16 209 22 220 6 11 39 67 74 124 128 214 214 475 253 764 12
96 13 415 0 517 -9 76 -100 440 -110 440 -3 0 -102 -61 -220 -136z m-7759
-4194 c23 0 5 -30 -28 -46 -44 -20 -153 -32 -153 -16 0 25 123 77 158 66 8 -2
18 -4 23 -4z m-943 -308 c30 -29 52 -55 49 -58 -3 -3 -34 0 -68 6 -172 32
-298 39 -629 35 -184 -2 -346 -5 -360 -8 -14 -3 -59 -8 -100 -12 -41 -3 -84
-8 -95 -11 -16 -4 -17 -3 -5 5 37 23 307 62 605 86 195 16 367 38 420 54 40
11 110 -25 183 -97z m251 -365 c121 -118 222 -203 364 -307 67 -50 148 -111
179 -135 189 -148 387 -240 558 -260 71 -8 181 10 248 40 122 56 182 129 237
292 2 8 25 3 72 -16 118 -49 190 -63 341 -68 165 -6 208 4 277 68 l42 39 34
-26 c56 -43 168 -92 222 -99 35 -5 66 -2 95 8 l42 15 0 -125 c0 -156 26 -289
82 -426 34 -83 39 -106 34 -143 -7 -56 -45 -131 -85 -168 -28 -27 -37 -29
-103 -29 -87 0 -167 22 -262 71 -39 20 -74 38 -77 40 -3 1 -9 -33 -13 -77 -13
-163 -74 -278 -165 -315 -104 -41 -290 -24 -436 40 -44 19 -86 38 -93 41 -9 4
-11 -4 -6 -32 15 -95 -42 -192 -126 -215 -41 -11 -127 -8 -162 5 -10 4 -21 -8
-33 -35 -26 -58 -89 -118 -138 -131 -87 -23 -192 18 -291 114 l-63 62 -56 170
c-31 94 -71 225 -90 293 -29 103 -32 122 -19 117 10 -4 44 -13 77 -22 143 -37
273 29 335 170 17 39 23 44 45 39 39 -7 108 16 149 50 21 17 36 32 34 34 -2 1
-21 -1 -43 -6 -47 -11 -124 2 -176 29 l-37 20 -11 -43 c-15 -60 -65 -124 -114
-147 -51 -23 -134 -25 -183 -4 -80 33 -168 129 -194 210 -29 91 -122 292 -182
391 -110 185 -267 355 -424 459 l-53 35 22 44 c27 52 23 53 146 -67z m2642
-2712 c1 -16 2 -126 3 -243 l1 -212 -186 2 -187 1 -4 49 c-6 60 1 101 16 95 6
-2 21 -7 34 -11 l22 -7 0 143 c0 79 3 159 6 178 l6 35 144 0 144 0 1 -30z
m594 -99 c93 -36 175 -66 183 -66 8 0 13 9 12 23 -1 12 -2 56 -1 97 l1 75 144
-3 c139 -3 144 -4 150 -25 8 -29 8 -411 0 -431 -5 -14 -28 -16 -150 -16 -89 0
-144 4 -144 10 0 6 17 10 38 10 30 1 9 12 -118 60 -85 33 -158 60 -162 60 -4
0 -8 -30 -10 -67 l-3 -68 -147 -3 -148 -3 0 240 0 240 93 -33 c50 -19 168 -64
262 -100z m1487 111 c4 -6 8 -103 8 -213 l0 -201 -142 5 c-79 2 -145 7 -148 9
-3 3 -7 54 -8 114 l-4 110 -121 -3 -122 -3 0 -140 0 -140 -150 0 -150 0 -3
200 c-2 110 0 218 3 240 l5 40 412 -3 c312 -2 414 -5 420 -15z m2658 -292 l0
-315 -143 0 -144 0 -6 98 c-4 53 -7 139 -7 190 l0 92 -126 0 -126 0 7 -167 c5
-106 12 -171 19 -175 61 -37 59 -38 -129 -35 l-180 2 -9 282 c-4 155 -6 294
-2 307 l6 26 418 3 c229 1 418 3 420 5 1 1 2 -140 2 -313z m-8786 290 c3 -9 6
-162 6 -339 l0 -323 23 -11 c17 -8 -19 -11 -150 -11 l-173 -1 0 349 0 349 144
1 c124 2 144 0 150 -14z m552 -21 c3 -19 3 -177 -1 -350 l-7 -314 -143 0
c-127 0 -144 2 -150 18 -3 9 -3 167 1 350 l7 332 143 0 143 0 7 -36z m452
-271 l-3 -308 -147 -3 -148 -3 0 288 c0 159 3 298 6 311 6 22 9 22 150 22
l144 0 -2 -307z m550 17 c1 -157 0 -295 -3 -307 -5 -23 -8 -23 -150 -23 l-145
0 0 288 c0 158 3 297 6 310 6 22 8 23 148 20 l141 -3 3 -285z m383 204 l200
-86 137 61 c210 92 274 115 283 99 10 -16 11 -149 2 -372 l-6 -167 -146 3
-146 3 -3 88 c-1 48 -4 87 -6 87 -2 0 -29 -12 -61 -26 l-57 -26 -58 25 -58 25
-6 -22 c-3 -11 -6 -51 -6 -88 l0 -68 -144 0 c-80 0 -147 3 -149 8 -9 16 6 542
15 542 5 0 100 -39 209 -86z m999 10 c102 -41 192 -76 200 -76 8 -1 96 30 195
69 99 40 192 75 208 78 l27 7 0 -251 0 -251 -150 0 -150 0 0 80 c0 44 -2 80
-4 80 -2 0 -29 -11 -61 -25 l-57 -26 -54 21 c-30 11 -59 20 -64 20 -6 0 -10
-34 -10 -75 l0 -75 -150 0 -150 0 0 204 c0 219 6 296 24 296 6 0 94 -34 196
-76z m4284 60 c3 -9 6 -126 6 -260 l0 -244 -144 0 c-110 0 -145 3 -149 13 -3
7 -6 76 -6 152 -1 77 -4 141 -6 143 -2 3 -57 5 -122 6 l-118 1 -3 -140 c-3
-133 -2 -141 19 -157 20 -17 15 -18 -144 -18 l-165 0 -4 25 c-8 38 -10 474 -3
485 4 6 153 10 420 10 367 0 414 -2 419 -16z m486 -259 l0 -275 -182 2 -183 3
-3 93 -3 93 30 -16 c17 -8 32 -15 36 -15 3 0 5 85 5 188 0 104 3 192 7 195 3
4 71 7 150 7 l143 0 0 -275z m1853 264 c12 -6 70 -38 130 -72 l107 -61 0 -256
c0 -140 -4 -261 -8 -268 -7 -9 -43 -12 -148 -10 l-139 3 -3 173 -2 172 -48 30
c-41 26 -56 30 -124 30 l-78 0 0 -207 0 -208 -147 5 -148 5 -3 325 c-1 179 0
330 3 337 6 17 575 19 608 2z m-4700 -552 c13 8 236 5 249 -4 5 -2 9 8 10 24
1 15 5 -30 9 -102 11 -208 10 -703 -1 -710 -6 -4 -73 -3 -150 1 l-140 7 2 431
c1 237 3 412 5 388 3 -30 8 -40 16 -35z m-555 -10 c2 15 243 23 254 8 4 -5 9
8 10 30 3 64 15 -380 17 -606 l1 -206 -61 -7 c-34 -3 -102 -6 -150 -6 l-89 0
2 433 c0 237 4 412 8 387 4 -25 8 -40 8 -33z m-621 31 c-3 -7 -5 -2 -5 12 0
14 2 19 5 13 2 -7 2 -19 0 -25z m1758 -43 l130 0 5 40 c3 22 9 -108 14 -290 4
-181 8 -331 9 -331 1 -1 57 -5 125 -9 l122 -7 0 176 0 176 33 0 c28 1 23 5
-40 32 l-73 31 0 111 c0 71 4 106 9 96 6 -8 7 -18 5 -22 -3 -4 -1 -8 5 -8 5 0
12 4 15 9 7 11 46 2 46 -11 0 -5 4 -7 9 -4 8 5 146 -49 312 -122 55 -24 59
-34 59 -160 l0 -92 -40 20 c-21 11 -42 20 -46 20 -4 0 -3 -106 1 -237 l7 -236
-109 6 c-98 7 -294 17 -620 33 l-123 6 2 427 c0 234 4 408 7 386 l6 -40 130 0z
m-1325 -35 l0 -90 -26 10 c-14 6 -30 10 -35 10 -5 0 -9 -134 -9 -335 0 -260
-3 -336 -12 -339 -7 -3 -75 -7 -150 -10 l-138 -6 0 268 c0 147 3 317 7 379 l6
112 41 3 41 4 -32 13 c-18 7 -33 17 -33 23 0 6 -7 7 -16 4 -8 -3 -12 -2 -9 3
6 11 45 10 45 0 0 -4 14 -3 32 2 18 5 34 5 37 1 4 -4 52 -5 109 -2 57 3 110 1
118 -3 10 -6 14 -2 14 18 0 14 2 25 5 25 3 0 5 -40 5 -90z m2288 -15 c1 7 120
9 338 7 261 -2 340 0 352 10 12 10 14 10 8 1 -4 -7 -3 -13 3 -13 5 0 13 5 17
11 5 8 9 8 14 -1 5 -8 13 -9 21 -4 8 5 24 7 36 6 17 -3 22 3 26 25 l4 28 2
-27 c1 -28 -29 -55 -48 -43 -5 3 -11 1 -13 -3 -1 -5 -21 -15 -43 -24 l-40 -16
71 -34 71 -33 6 -110 c4 -60 7 -234 7 -386 l0 -276 -52 8 c-80 12 -494 58
-653 72 l-140 12 -1 435 c-1 239 2 415 6 390 4 -25 8 -40 8 -35z m-3408 -795
c-12 -8 -281 -32 -287 -26 -3 2 -1 199 3 438 5 238 10 422 12 409 3 -18 6 -21
12 -11 11 17 23 19 153 21 91 1 107 3 109 17 2 10 4 -176 5 -412 2 -277 0
-432 -7 -436z m3947 828 c-3 -7 -5 -2 -5 12 0 14 2 19 5 13 2 -7 2 -19 0 -25z
m-3386 -554 l-4 -232 -61 -6 c-34 -3 -100 -8 -148 -12 l-87 -6 6 393 c2 217 6
399 8 406 4 12 22 12 43 0 7 -5 12 -3 12 3 0 8 34 10 110 8 92 -2 110 -1 112
12 6 46 13 -369 9 -566z m4225 329 c-2 -2 -18 3 -36 12 -18 9 -33 15 -34 13 0
-2 1 -176 4 -388 3 -212 4 -387 2 -389 -3 -6 -269 31 -281 39 -8 4 -18 666
-12 813 l1 39 43 -7 c39 -5 41 -5 23 10 -11 8 -24 15 -30 15 -6 0 -5 5 2 12 9
9 9 15 -1 26 -10 13 -9 14 10 2 12 -8 20 -16 18 -20 -2 -3 56 -4 128 -3 114 2
134 0 145 -14 10 -15 12 -11 14 23 1 21 4 -10 5 -70 2 -60 2 -111 -1 -113z
m-5933 165 c67 2 127 7 133 13 8 6 13 -18 17 -89 7 -139 7 -470 -1 -657 l-7
-159 -143 -21 c-78 -12 -144 -19 -147 -17 -6 6 4 698 12 852 4 69 9 114 10
100 l4 -25 122 3z m699 -394 c-1 -229 -4 -419 -6 -421 -2 -3 -58 -11 -123 -19
-65 -7 -130 -16 -146 -19 l-27 -5 5 363 c6 377 12 516 23 501 4 -5 64 -9 135
-9 119 0 127 1 127 19 0 11 3 16 6 13 4 -4 6 -194 6 -423z m4903 417 c3 -5 0
-13 -6 -17 -8 -5 -9 -3 -4 6 6 10 4 12 -9 7 -10 -4 -15 -3 -11 3 8 13 22 13
30 1z m-6727 -111 c2 13 23 15 131 13 l130 -2 4 37 c2 20 4 -144 5 -365 1
-222 5 -403 10 -403 4 0 59 9 122 20 63 11 116 20 116 20 1 0 5 172 10 383 5
210 11 362 15 337 3 -25 7 -40 7 -35 1 6 45 9 118 6 89 -2 118 0 125 10 4 7
12 10 16 5 4 -4 8 -208 8 -454 l0 -445 -210 -39 c-115 -21 -306 -58 -422 -82
l-213 -43 0 156 c0 312 15 984 21 926 3 -33 6 -53 7 -45z m7485 9 c283 -2 283
-2 293 -11 4 -4 13 -3 21 3 9 8 48 10 116 7 56 -3 93 -2 83 2 -13 4 -16 9 -9
13 7 4 14 3 18 -3 3 -5 13 -10 21 -10 9 0 12 5 8 12 -4 6 -3 8 4 4 5 -3 13 0
15 6 4 9 6 7 6 -3 1 -17 -75 -53 -90 -43 -5 3 -9 1 -9 -4 0 -5 -10 -13 -21
-18 -20 -9 -15 -14 48 -52 l70 -41 6 -83 c4 -46 7 -250 7 -454 l0 -371 -142
30 c-79 16 -145 31 -148 34 -2 2 -6 158 -8 345 l-4 340 43 -7 c29 -5 40 -4 34
3 -14 13 -312 192 -321 192 -4 0 -4 -184 -1 -409 4 -224 4 -410 2 -413 -6 -5
-281 45 -289 52 -6 7 -10 558 -6 780 1 80 5 135 7 123 l4 -23 242 -1z m264 9
c-3 -8 -6 -5 -6 6 -1 11 2 17 5 13 3 -3 4 -12 1 -19z m855 -897 c63 -12 84
-12 122 -1 l46 13 1 356 c1 196 5 383 9 416 4 33 8 53 9 45 1 -13 2 -13 11 0
8 12 10 12 10 -5 0 -12 3 -16 8 -8 9 14 212 16 212 2 0 -19 19 -8 23 14 2 12
5 -52 6 -143 1 -91 4 -334 7 -540 2 -206 1 -380 -3 -387 -5 -6 -65 -30 -134
-52 l-126 -41 -244 59 c-134 32 -262 63 -284 68 l-40 9 -1 544 c0 300 1 526 3
503 2 -24 8 -43 14 -43 5 0 9 5 9 10 0 7 43 10 119 9 102 -1 121 -3 124 -17 3
-10 6 12 8 48 2 36 6 -140 9 -390 l5 -455 77 -14z m-805 903 c-3 -3 -12 -4
-19 -1 -8 3 -5 6 6 6 11 1 17 -2 13 -5z m-8810 -26 c-3 -8 -6 -5 -6 6 -1 11 2
17 5 13 3 -3 4 -12 1 -19z m11 -105 c2 17 17 18 251 15 137 -2 244 0 238 4 -8
5 -5 8 6 8 11 0 15 4 11 12 -4 7 -3 8 5 4 6 -4 9 -12 6 -17 -4 -5 -2 -9 4 -9
5 0 17 -3 27 -7 10 -3 15 -2 12 3 -4 5 44 8 118 6 123 -3 124 -3 126 20 1 13
4 -13 7 -57 9 -116 12 -852 3 -905 l-7 -44 -135 -33 c-74 -17 -138 -32 -142
-33 -5 0 -8 168 -8 374 l0 373 43 9 42 9 -150 63 c-82 35 -158 66 -167 69 -17
5 -18 -24 -20 -478 l-3 -484 -120 -32 c-66 -17 -130 -34 -142 -37 l-23 -6 2
632 c1 348 4 608 8 578 4 -30 7 -47 8 -37z m4428 -884 c54 -14 60 -22 43 -60
-10 -24 -16 -29 -33 -24 -12 4 -41 9 -66 12 -37 4 -48 1 -64 -16 -17 -19 -17
-22 -3 -44 9 -13 40 -37 69 -52 90 -46 88 -50 -17 -47 -93 3 -95 4 -119 35
-41 54 -39 127 4 167 43 40 104 49 186 29z m821 -4 c21 -9 46 -23 57 -33 30
-27 56 -93 56 -144 l0 -48 -39 0 c-42 0 -44 2 -55 72 -8 48 -55 88 -101 88
-76 0 -112 -34 -121 -116 l-6 -49 -44 4 c-43 3 -44 4 -44 40 0 88 53 170 123
190 50 15 134 12 174 -4z m-1117 -30 l0 -35 -80 0 -80 0 0 -55 0 -55 76 0 c65
0 75 -2 70 -16 -3 -9 -6 -20 -6 -25 0 -5 -52 -9 -115 -9 l-115 0 0 115 0 115
125 0 125 0 0 -35z m675 21 c47 -20 69 -58 69 -120 0 -94 -3 -96 -164 -96
l-140 0 0 115 0 115 100 0 c64 0 113 -5 135 -14z m882 3 c83 -31 110 -135 52
-198 -18 -19 -30 -21 -144 -21 l-125 0 0 84 c0 46 -3 98 -6 115 l-6 31 100 0
c55 0 113 -5 129 -11z m483 -29 l0 -40 -59 0 -58 0 -7 -46 c-3 -26 -6 -60 -6
-75 0 -27 -3 -29 -40 -29 l-40 0 0 75 0 75 -59 0 c-52 0 -59 2 -65 23 -16 59
-21 57 164 57 l170 0 0 -40z"/>
<path d="M11753 8253 c4 -54 7 -166 7 -249 l0 -151 73 -7 c39 -4 96 -9 125
-12 l52 -6 0 186 0 187 40 -6 c22 -3 40 -4 40 -1 0 7 -311 156 -327 156 -14 0
-15 -13 -10 -97z"/>
<path d="M9468 7274 c-5 -4 -8 -36 -8 -72 l0 -65 46 6 c25 2 53 12 62 20 19
20 20 73 1 92 -16 16 -90 30 -101 19z"/>
<path d="M10358 7274 c-5 -4 -8 -34 -8 -67 l0 -60 45 6 c109 12 116 105 10
122 -22 4 -43 3 -47 -1z"/>
</g>
</svg>
